<svg id="svg" version="1.1" width="400" height="400" viewBox="0 0 400 400" xmlns="http://www.w3.org/2000/svg" xmlns:xlink="http://www.w3.org/1999/xlink" ><g id="svgg"><path id="path0" d="M30.636 65.021 C 29.666 65.991,29.663 129.785,30.633 130.157 C 30.981 130.291,41.349 130.400,53.672 130.400 C 73.464 130.400,76.238 130.475,77.440 131.046 L 78.800 131.691 78.800 191.032 C 78.800 240.403,78.708 250.594,78.251 251.686 C 77.950 252.409,77.408 254.239,77.049 255.752 C 76.389 258.528,75.841 259.585,72.200 265.104 C 70.278 268.017,66.969 271.134,64.200 272.641 C 63.540 273.000,62.621 273.640,62.157 274.063 C 61.639 274.536,59.822 275.133,57.449 275.610 C 55.323 276.038,53.057 276.660,52.412 276.994 C 51.471 277.480,49.542 277.600,42.647 277.600 L 34.054 277.600 33.241 278.742 C 32.291 280.076,32.975 285.016,34.446 287.447 C 34.861 288.133,35.200 289.222,35.200 289.867 C 35.200 291.586,36.580 297.612,37.292 299.002 C 37.629 299.661,38.027 301.010,38.176 302.000 C 38.758 305.859,39.741 309.867,40.454 311.284 C 40.864 312.100,41.199 313.180,41.198 313.684 C 41.194 315.524,42.520 321.439,43.255 322.864 C 43.670 323.669,44.185 325.739,44.398 327.464 C 44.959 332.015,46.004 336.004,46.857 336.857 C 47.564 337.564,48.720 337.600,70.509 337.600 L 93.418 337.600 94.835 336.432 C 95.614 335.790,96.960 335.138,97.826 334.984 C 98.692 334.829,99.853 334.282,100.406 333.767 C 100.959 333.252,102.190 332.556,103.142 332.220 C 104.094 331.885,105.418 331.151,106.084 330.590 C 106.751 330.030,107.804 329.308,108.424 328.988 C 109.603 328.378,114.483 324.775,115.480 323.777 C 115.797 323.460,116.239 323.200,116.462 323.200 C 117.124 323.200,132.294 307.765,133.029 306.343 C 133.401 305.625,134.942 303.500,136.453 301.621 C 137.965 299.743,139.403 297.575,139.649 296.803 C 139.895 296.031,140.520 294.945,141.038 294.389 C 141.556 293.832,142.193 292.752,142.454 291.989 C 142.715 291.225,143.336 290.107,143.834 289.505 C 144.333 288.902,145.038 287.372,145.402 286.105 C 145.765 284.837,146.343 283.365,146.685 282.833 C 147.027 282.301,147.809 280.141,148.422 278.033 C 149.036 275.925,149.812 273.390,150.147 272.400 C 151.014 269.842,152.858 260.748,153.229 257.200 C 153.402 255.550,153.556 211.883,153.572 160.162 L 153.600 66.124 152.758 65.362 C 151.556 64.274,31.718 63.939,30.636 65.021 M260.291 65.005 C 253.441 65.452,252.601 65.590,250.709 66.571 C 249.332 67.286,247.378 67.821,244.895 68.165 C 242.327 68.520,240.796 68.948,240.008 69.531 C 239.377 69.998,237.564 70.727,235.979 71.152 C 234.395 71.577,232.603 72.291,231.998 72.738 C 231.393 73.186,229.931 73.863,228.749 74.242 C 227.567 74.622,226.009 75.443,225.286 76.066 C 224.563 76.690,223.733 77.200,223.441 77.200 C 223.149 77.200,222.210 77.756,221.355 78.436 C 220.500 79.116,219.260 79.925,218.600 80.233 C 217.940 80.542,216.410 81.609,215.200 82.605 C 213.990 83.601,212.100 85.013,211.000 85.743 C 208.859 87.165,206.699 89.004,204.707 91.100 C 204.027 91.815,203.328 92.400,203.152 92.400 C 202.859 92.400,202.158 93.107,197.400 98.201 C 195.126 100.636,193.245 102.830,191.400 105.202 C 190.520 106.334,189.160 108.011,188.379 108.930 C 187.597 109.848,186.176 111.950,185.221 113.600 C 184.266 115.250,182.962 117.361,182.323 118.292 C 181.684 119.223,180.902 120.858,180.585 121.927 C 180.268 122.995,179.667 124.177,179.250 124.554 C 178.834 124.932,178.259 126.086,177.974 127.120 C 177.688 128.154,176.966 129.630,176.370 130.400 C 175.737 131.217,175.178 132.562,175.029 133.627 C 174.888 134.632,174.255 136.550,173.622 137.888 C 172.941 139.329,172.204 141.930,171.816 144.261 C 171.456 146.428,170.916 149.010,170.615 150.000 C 168.977 155.389,168.246 181.969,169.547 188.800 C 171.206 197.503,174.826 210.242,176.399 212.909 C 176.843 213.662,177.475 215.180,177.803 216.284 C 178.130 217.387,178.748 218.735,179.176 219.278 C 179.603 219.822,180.261 221.062,180.636 222.033 C 181.012 223.005,181.718 224.250,182.206 224.800 C 182.693 225.350,183.569 226.790,184.152 228.000 C 185.364 230.514,187.296 233.315,188.900 234.886 C 189.505 235.479,190.000 236.164,190.000 236.409 C 190.000 237.294,199.141 247.379,203.367 251.157 C 204.009 251.731,204.909 252.623,205.367 253.139 C 205.825 253.656,206.863 254.418,207.674 254.834 C 208.484 255.249,209.384 255.923,209.674 256.331 C 209.963 256.739,210.650 257.308,211.200 257.594 C 211.750 257.881,212.871 258.674,213.691 259.358 C 217.169 262.255,218.012 262.850,219.688 263.592 C 220.659 264.021,221.925 264.810,222.501 265.343 C 223.077 265.877,224.415 266.642,225.474 267.042 C 226.533 267.442,227.639 268.003,227.931 268.287 C 228.812 269.146,229.706 269.507,231.689 269.804 C 232.839 269.977,233.990 270.470,234.633 271.065 C 235.293 271.677,236.533 272.198,237.944 272.456 C 239.185 272.683,241.459 273.419,242.997 274.092 C 244.865 274.908,246.926 275.438,249.197 275.686 C 251.069 275.890,253.390 276.405,254.355 276.831 C 255.321 277.256,257.661 277.782,259.555 277.999 C 264.388 278.552,370.990 278.540,372.026 277.986 C 373.145 277.387,373.256 164.477,372.139 163.549 C 370.853 162.482,300.676 162.549,299.174 163.619 L 298.000 164.454 298.000 187.197 L 298.000 209.939 296.964 211.169 L 295.929 212.400 287.651 212.400 C 280.491 212.400,279.075 212.295,277.170 211.626 C 275.959 211.200,273.364 210.639,271.404 210.378 C 268.460 209.986,267.710 209.739,267.098 208.961 C 266.691 208.443,265.671 207.835,264.832 207.609 C 263.994 207.383,262.629 206.659,261.799 205.999 C 260.969 205.340,260.130 204.800,259.934 204.800 C 259.174 204.800,251.600 197.348,251.600 196.599 C 251.600 196.329,251.261 195.677,250.846 195.150 C 248.709 192.432,245.581 186.064,245.308 183.873 C 245.193 182.953,244.737 181.598,244.294 180.862 C 243.122 178.916,243.001 165.183,244.131 162.400 C 244.533 161.410,245.209 159.347,245.634 157.815 C 246.059 156.283,246.820 154.393,247.326 153.615 C 247.833 152.837,248.487 151.570,248.781 150.800 C 249.074 150.030,249.812 148.860,250.420 148.200 C 251.028 147.540,252.154 146.280,252.922 145.400 C 256.284 141.546,261.091 137.149,263.196 136.000 C 263.800 135.670,264.994 135.022,265.848 134.559 C 266.701 134.097,268.291 133.500,269.379 133.233 C 270.467 132.967,272.357 132.265,273.579 131.674 L 275.800 130.600 323.800 130.400 C 350.200 130.290,372.025 130.054,372.300 129.876 C 372.886 129.497,373.036 66.591,372.452 65.671 C 372.268 65.380,371.416 64.979,370.559 64.781 C 368.106 64.212,269.356 64.412,260.291 65.005 " stroke="none" fill="#ffffff" fill-rule="evenodd"></path><path id="path1" d="M0.000 200.000 L 0.000 400.000 200.000 400.000 L 400.000 400.000 400.000 200.000 L 400.000 0.000 200.000 0.000 L 0.000 0.000 0.000 200.000 M152.758 65.362 L 153.600 66.124 153.572 160.162 C 153.556 211.883,153.402 255.550,153.229 257.200 C 152.858 260.748,151.014 269.842,150.147 272.400 C 149.812 273.390,149.036 275.925,148.422 278.033 C 147.809 280.141,147.027 282.301,146.685 282.833 C 146.343 283.365,145.765 284.837,145.402 286.105 C 145.038 287.372,144.333 288.902,143.834 289.505 C 143.336 290.107,142.715 291.225,142.454 291.989 C 142.193 292.752,141.556 293.832,141.038 294.389 C 140.520 294.945,139.895 296.031,139.649 296.803 C 139.403 297.575,137.965 299.743,136.453 301.621 C 134.942 303.500,133.401 305.625,133.029 306.343 C 132.294 307.765,117.124 323.200,116.462 323.200 C 116.239 323.200,115.797 323.460,115.480 323.777 C 114.483 324.775,109.603 328.378,108.424 328.988 C 107.804 329.308,106.751 330.030,106.084 330.590 C 105.418 331.151,104.094 331.885,103.142 332.220 C 102.190 332.556,100.959 333.252,100.406 333.767 C 99.853 334.282,98.692 334.829,97.826 334.984 C 96.960 335.138,95.614 335.790,94.835 336.432 L 93.418 337.600 70.509 337.600 C 48.720 337.600,47.564 337.564,46.857 336.857 C 46.004 336.004,44.959 332.015,44.398 327.464 C 44.185 325.739,43.670 323.669,43.255 322.864 C 42.520 321.439,41.194 315.524,41.198 313.684 C 41.199 313.180,40.864 312.100,40.454 311.284 C 39.741 309.867,38.758 305.859,38.176 302.000 C 38.027 301.010,37.629 299.661,37.292 299.002 C 36.580 297.612,35.200 291.586,35.200 289.867 C 35.200 289.222,34.861 288.133,34.446 287.447 C 32.975 285.016,32.291 280.076,33.241 278.742 L 34.054 277.600 42.647 277.600 C 49.542 277.600,51.471 277.480,52.412 276.994 C 53.057 276.660,55.323 276.038,57.449 275.610 C 59.822 275.133,61.639 274.536,62.157 274.063 C 62.621 273.640,63.540 273.000,64.200 272.641 C 66.969 271.134,70.278 268.017,72.200 265.104 C 75.841 259.585,76.389 258.528,77.049 255.752 C 77.408 254.239,77.950 252.409,78.251 251.686 C 78.708 250.594,78.800 240.403,78.800 191.032 L 78.800 131.691 77.440 131.046 C 76.238 130.475,73.464 130.400,53.672 130.400 C 41.349 130.400,30.981 130.291,30.633 130.157 C 29.663 129.785,29.666 65.991,30.636 65.021 C 31.718 63.939,151.556 64.274,152.758 65.362 M370.559 64.781 C 371.416 64.979,372.268 65.380,372.452 65.671 C 373.036 66.591,372.886 129.497,372.300 129.876 C 372.025 130.054,350.200 130.290,323.800 130.400 L 275.800 130.600 273.579 131.674 C 272.357 132.265,270.467 132.967,269.379 133.233 C 268.291 133.500,266.701 134.097,265.848 134.559 C 264.994 135.022,263.800 135.670,263.196 136.000 C 261.091 137.149,256.284 141.546,252.922 145.400 C 252.154 146.280,251.028 147.540,250.420 148.200 C 249.812 148.860,249.074 150.030,248.781 150.800 C 248.487 151.570,247.833 152.837,247.326 153.615 C 246.820 154.393,246.059 156.283,245.634 157.815 C 245.209 159.347,244.533 161.410,244.131 162.400 C 243.001 165.183,243.122 178.916,244.294 180.862 C 244.737 181.598,245.193 182.953,245.308 183.873 C 245.581 186.064,248.709 192.432,250.846 195.150 C 251.261 195.677,251.600 196.329,251.600 196.599 C 251.600 197.348,259.174 204.800,259.934 204.800 C 260.130 204.800,260.969 205.340,261.799 205.999 C 262.629 206.659,263.994 207.383,264.832 207.609 C 265.671 207.835,266.691 208.443,267.098 208.961 C 267.710 209.739,268.460 209.986,271.404 210.378 C 273.364 210.639,275.959 211.200,277.170 211.626 C 279.075 212.295,280.491 212.400,287.651 212.400 L 295.929 212.400 296.964 211.169 L 298.000 209.939 298.000 187.197 L 298.000 164.454 299.174 163.619 C 300.676 162.549,370.853 162.482,372.139 163.549 C 373.256 164.477,373.145 277.387,372.026 277.986 C 370.990 278.540,264.388 278.552,259.555 277.999 C 257.661 277.782,255.321 277.256,254.355 276.831 C 253.390 276.405,251.069 275.890,249.197 275.686 C 246.926 275.438,244.865 274.908,242.997 274.092 C 241.459 273.419,239.185 272.683,237.944 272.456 C 236.533 272.198,235.293 271.677,234.633 271.065 C 233.990 270.470,232.839 269.977,231.689 269.804 C 229.706 269.507,228.812 269.146,227.931 268.287 C 227.639 268.003,226.533 267.442,225.474 267.042 C 224.415 266.642,223.077 265.877,222.501 265.343 C 221.925 264.810,220.659 264.021,219.688 263.592 C 218.012 262.850,217.169 262.255,213.691 259.358 C 212.871 258.674,211.750 257.881,211.200 257.594 C 210.650 257.308,209.963 256.739,209.674 256.331 C 209.384 255.923,208.484 255.249,207.674 254.834 C 206.863 254.418,205.825 253.656,205.367 253.139 C 204.909 252.623,204.009 251.731,203.367 251.157 C 199.141 247.379,190.000 237.294,190.000 236.409 C 190.000 236.164,189.505 235.479,188.900 234.886 C 187.296 233.315,185.364 230.514,184.152 228.000 C 183.569 226.790,182.693 225.350,182.206 224.800 C 181.718 224.250,181.012 223.005,180.636 222.033 C 180.261 221.062,179.603 219.822,179.176 219.278 C 178.748 218.735,178.130 217.387,177.803 216.284 C 177.475 215.180,176.843 213.662,176.399 212.909 C 174.826 210.242,171.206 197.503,169.547 188.800 C 168.246 181.969,168.977 155.389,170.615 150.000 C 170.916 149.010,171.456 146.428,171.816 144.261 C 172.204 141.930,172.941 139.329,173.622 137.888 C 174.255 136.550,174.888 134.632,175.029 133.627 C 175.178 132.562,175.737 131.217,176.370 130.400 C 176.966 129.630,177.688 128.154,177.974 127.120 C 178.259 126.086,178.834 124.932,179.250 124.554 C 179.667 124.177,180.268 122.995,180.585 121.927 C 180.902 120.858,181.684 119.223,182.323 118.292 C 182.962 117.361,184.266 115.250,185.221 113.600 C 186.176 111.950,187.597 109.848,188.379 108.930 C 189.160 108.011,190.520 106.334,191.400 105.202 C 193.245 102.830,195.126 100.636,197.400 98.201 C 202.158 93.107,202.859 92.400,203.152 92.400 C 203.328 92.400,204.027 91.815,204.707 91.100 C 206.699 89.004,208.859 87.165,211.000 85.743 C 212.100 85.013,213.990 83.601,215.200 82.605 C 216.410 81.609,217.940 80.542,218.600 80.233 C 219.260 79.925,220.500 79.116,221.355 78.436 C 222.210 77.756,223.149 77.200,223.441 77.200 C 223.733 77.200,224.563 76.690,225.286 76.066 C 226.009 75.443,227.567 74.622,228.749 74.242 C 229.931 73.863,231.393 73.186,231.998 72.738 C 232.603 72.291,234.395 71.577,235.979 71.152 C 237.564 70.727,239.377 69.998,240.008 69.531 C 240.796 68.948,242.327 68.520,244.895 68.165 C 247.378 67.821,249.332 67.286,250.709 66.571 C 252.601 65.590,253.441 65.452,260.291 65.005 C 269.356 64.412,368.106 64.212,370.559 64.781 " stroke="none" fill="#1f435e" fill-rule="evenodd"></path></g></svg>